<svg xmlns:inkscape="http://www.inkscape.org/namespaces/inkscape" xmlns:sodipodi="http://sodipodi.sourceforge.net/DTD/sodipodi-0.dtd" xmlns="http://www.w3.org/2000/svg" xmlns:svg="http://www.w3.org/2000/svg" id="Ebene_2" viewBox="0 0 226.77167 92.151191" sodipodi:docname="logo-hell-sub_pfad.svg" width="60.000004mm" height="24.381672mm" inkscape:version="1.1 (c68e22c387, 2021-05-23)" inkscape:export-filename="C:\Users\leimgruber.OESTAPWIEN\Desktop\Logos\ENGINEERING\transparent\test.png" inkscape:export-xdpi="4000" inkscape:export-ydpi="4000"><defs id="defs4"><style id="style2">.cls-1{letter-spacing:-.01em;}.cls-2{letter-spacing:0em;}.cls-3{font-family:VollkornRoman-SemiBold, Vollkorn;font-size:19.23px;font-variation-settings:'wght' 600;font-weight:600;}.cls-3,.cls-4{fill:#97a719;}.cls-5{letter-spacing:0em;}.cls-4,.cls-6{stroke-width:0px;}.cls-6{fill:#008732;}</style></defs><g id="Ebene_1-2" transform="translate(-1.4066742e-6,-2.5659455e-5)"><g id="g4762" transform="matrix(0.99435081,0,0,0.99435081,716.51425,409.11022)" style="stroke-width:1.00568" inkscape:export-filename="C:\Users\leimgruber.OESTAPWIEN\Desktop\Logos\ENGINEERING\transparent\g4762.png" inkscape:export-xdpi="1000" inkscape:export-ydpi="1000"><g id="g4850" transform="translate(-0.99007)" style="stroke-width:1.00568"><path class="cls-4" d="m -717.87489,-398.29091 c 0,0 6.91,9.21 17.27,-0.99 2.6,-2.56 10.27,-11.61 17.49,-12.14 6.98,-0.51 12.56,13.54 12.56,13.54 v 0.24 c 0,0 -7.81,-9.6 -14.44,-4.93 -6.63,4.67 -12.56,13.68 -17.84,15.12 -10.01,2.73 -15.04,-10.54 -15.04,-10.54 z" id="path6-6" style="fill:#97a719;stroke-width:0px"></path><path class="cls-6" d="m -645.35489,-344.47091 c -3.16,0 -5.98,-0.43 -8.48,-1.3 -2.5,-0.87 -4.99,-2.04 -7.48,-3.51 0.31,-1.93 0.51,-3.89 0.61,-5.88 0.1,-1.99 0.15,-3.74 0.15,-5.27 0.66,-0.2 1.45,-0.34 2.37,-0.42 0.92,-0.08 1.76,-0.12 2.52,-0.12 0.2,2.7 0.67,4.96 1.41,6.8 0.74,1.83 1.91,3.23 3.51,4.2 1.6,0.97 3.7,1.45 6.3,1.45 3.36,0 5.76,-0.74 7.22,-2.21 1.45,-1.48 2.18,-3.26 2.18,-5.35 0,-2.09 -0.61,-3.82 -1.83,-5.19 -1.22,-1.38 -2.8,-2.56 -4.73,-3.55 -1.94,-0.99 -3.97,-1.97 -6.11,-2.94 -2.14,-0.97 -4.17,-2.1 -6.11,-3.4 -1.94,-1.3 -3.51,-2.91 -4.73,-4.85 -1.22,-1.93 -1.83,-4.4 -1.83,-7.41 0,-3.01 0.66,-5.55 1.99,-7.64 1.32,-2.09 3.17,-3.68 5.54,-4.77 2.37,-1.09 5.15,-1.64 8.36,-1.64 1.78,0 3.51,0.15 5.19,0.46 1.68,0.31 3.22,0.71 4.62,1.22 1.4,0.51 2.53,1.07 3.4,1.68 0,1.58 0.03,3.36 0.08,5.35 0.05,1.99 0.18,3.64 0.38,4.96 -0.61,0.26 -1.39,0.46 -2.33,0.61 -0.94,0.15 -1.82,0.23 -2.64,0.23 -0.51,-2.9 -1.17,-5.12 -1.99,-6.64 -0.82,-1.52 -1.79,-2.58 -2.94,-3.17 -1.15,-0.59 -2.48,-0.88 -4.01,-0.88 -2.55,0 -4.54,0.61 -5.99,1.83 -1.45,1.22 -2.18,2.95 -2.18,5.19 0,2.24 0.61,3.92 1.83,5.35 1.22,1.43 2.8,2.65 4.74,3.66 1.93,1.02 3.98,2.04 6.15,3.05 2.16,1.02 4.23,2.16 6.19,3.44 1.96,1.27 3.55,2.85 4.77,4.74 1.22,1.88 1.83,4.25 1.83,7.1 0,2.65 -0.64,5.11 -1.91,7.37 -1.27,2.27 -3.22,4.07 -5.84,5.42 -2.62,1.35 -6.02,2.02 -10.19,2.02 z" id="path8-6" style="fill:#008732;stroke-width:0px"></path><path class="cls-6" d="m -609.83489,-393.04091 c -2.34,0 -4.14,0.38 -5.38,1.15 -1.25,0.76 -2.16,1.85 -2.75,3.25 -0.59,1.4 -1.06,3.07 -1.41,5 -0.71,0 -1.48,-0.05 -2.29,-0.15 -0.81,-0.1 -1.5,-0.31 -2.06,-0.61 0.41,-2.14 0.72,-4.33 0.95,-6.57 0.23,-2.24 0.34,-4.25 0.34,-6.03 1.58,0.05 3.4,0.1 5.46,0.15 2.06,0.05 4.33,0.08 6.8,0.08 h 15.85 c 2.49,0 4.8,-0.03 6.91,-0.08 2.11,-0.05 3.91,-0.1 5.38,-0.15 -0.05,1.89 -0.01,3.85 0.11,5.88 0.13,2.04 0.32,4.28 0.57,6.72 -0.61,0.26 -1.29,0.46 -2.02,0.61 -0.73,0.15 -1.54,0.2 -2.41,0.15 -0.15,-3.11 -0.9,-5.45 -2.25,-7.03 -1.35,-1.58 -3.48,-2.37 -6.38,-2.37 h -15.43 z m 3.28,-1.6 h 8.48 v 39.1 c 0,1.78 0.15,3.16 0.46,4.12 0.31,0.97 0.9,1.66 1.8,2.06 0.89,0.41 2.2,0.66 3.93,0.76 0.15,0.41 0.27,0.93 0.34,1.56 0.08,0.64 0.11,1.34 0.11,2.1 -1.63,-0.1 -3.36,-0.16 -5.19,-0.19 -1.83,-0.03 -3.69,-0.04 -5.58,-0.04 -1.27,0 -2.58,0.01 -3.93,0.04 -1.35,0.03 -2.65,0.05 -3.9,0.08 -1.25,0.02 -2.38,0.06 -3.4,0.11 0,-0.76 0.04,-1.46 0.11,-2.1 0.08,-0.64 0.19,-1.16 0.34,-1.56 1.73,-0.1 3.05,-0.36 3.97,-0.76 0.92,-0.41 1.55,-1.09 1.91,-2.06 0.35,-0.97 0.53,-2.34 0.53,-4.12 v -39.11 z" id="path10-9" style="fill:#008732;stroke-width:0px"></path><path class="cls-6" d="m -557.92489,-397.24091 17.95,41.01 c 0.92,1.99 1.67,3.51 2.25,4.58 0.58,1.07 1.17,1.81 1.76,2.21 0.58,0.41 1.26,0.69 2.02,0.84 0.2,0.66 0.33,1.26 0.38,1.79 0.05,0.53 0.08,1.16 0.08,1.87 -0.56,-0.05 -1.41,-0.09 -2.56,-0.11 -1.15,-0.03 -2.33,-0.05 -3.55,-0.08 -1.22,-0.03 -2.24,-0.04 -3.05,-0.04 -0.61,0 -1.36,0.01 -2.25,0.04 -0.89,0.03 -1.81,0.05 -2.75,0.08 -0.94,0.02 -1.79,0.05 -2.56,0.08 -0.77,0.03 -1.38,0.04 -1.83,0.04 0,-0.71 0.04,-1.39 0.11,-2.02 0.08,-0.64 0.22,-1.18 0.42,-1.64 2.04,-0.31 3.23,-0.81 3.59,-1.53 0.35,-0.71 0.05,-2.19 -0.92,-4.43 l -9.77,-22.91 c -0.82,-1.83 -1.5,-3.48 -2.06,-4.93 -0.56,-1.45 -1.17,-3.14 -1.83,-5.08 h 0.76 c -0.61,1.99 -1.18,3.76 -1.72,5.31 -0.54,1.55 -1.08,3.09 -1.64,4.62 l -8.09,21.08 c -1.02,2.7 -1.32,4.63 -0.92,5.8 0.41,1.17 1.63,1.86 3.67,2.06 0.2,0.51 0.34,1.07 0.42,1.68 0.08,0.61 0.11,1.27 0.11,1.98 -0.56,-0.05 -1.27,-0.09 -2.14,-0.11 -0.87,-0.03 -1.76,-0.05 -2.67,-0.08 -0.92,-0.03 -1.81,-0.04 -2.67,-0.04 -1.27,0 -2.5,0.03 -3.67,0.08 -1.17,0.05 -2.11,0.1 -2.82,0.15 0,-0.61 0.04,-1.23 0.11,-1.87 0.08,-0.64 0.22,-1.23 0.42,-1.79 0.92,-0.15 1.68,-0.48 2.29,-0.99 0.61,-0.51 1.21,-1.34 1.79,-2.48 0.58,-1.15 1.26,-2.71 2.02,-4.7 l 15.88,-40.17 c 0.56,-0.1 1.09,-0.18 1.6,-0.23 0.51,-0.05 1.12,-0.08 1.83,-0.08 z m 6.03,32.23 0.84,3.66 c -3.41,0 -7.04,0.04 -10.88,0.12 -3.85,0.07 -7.4,0.19 -10.65,0.34 l 1.22,-4.12 z" id="path12-0" style="fill:#008732;stroke-width:0px"></path><path class="cls-6" d="m -530.54489,-344.93091 c 0,-0.81 0.03,-1.53 0.08,-2.14 0.05,-0.61 0.15,-1.12 0.3,-1.53 1.38,-0.1 2.44,-0.36 3.21,-0.76 0.77,-0.4 1.3,-1.09 1.6,-2.06 0.31,-0.97 0.46,-2.34 0.46,-4.12 v -30.85 c 0,-1.83 -0.15,-3.22 -0.46,-4.16 -0.31,-0.94 -0.83,-1.61 -1.57,-2.02 -0.74,-0.41 -1.79,-0.66 -3.17,-0.76 -0.2,-0.46 -0.33,-0.99 -0.38,-1.6 -0.05,-0.61 -0.08,-1.3 -0.08,-2.06 2.04,0.1 4.01,0.17 5.92,0.19 1.91,0.03 3.5,0.04 4.77,0.04 0.87,0 2,-0.01 3.4,-0.04 1.4,-0.02 2.77,-0.05 4.12,-0.08 1.35,-0.03 2.35,-0.04 3.02,-0.04 4.38,0 7.88,0.69 10.5,2.06 2.62,1.38 4.49,3.19 5.61,5.46 1.12,2.27 1.68,4.75 1.68,7.45 0,3.05 -0.66,5.96 -1.99,8.71 -1.32,2.75 -3.28,4.98 -5.88,6.68 -2.6,1.71 -5.86,2.56 -9.78,2.56 -2.14,0 -3.89,-0.28 -5.27,-0.84 -0.15,-0.66 -0.22,-1.27 -0.19,-1.83 0.02,-0.56 0.14,-1.12 0.34,-1.68 0.61,0.15 1.22,0.27 1.83,0.34 0.61,0.08 1.22,0.12 1.83,0.12 1.78,0 3.44,-0.34 4.96,-1.03 1.53,-0.69 2.76,-1.87 3.7,-3.55 0.94,-1.68 1.41,-4.1 1.41,-7.25 0,-3.97 -0.95,-7.2 -2.86,-9.7 -1.91,-2.49 -5,-3.74 -9.28,-3.74 -0.61,0 -1.27,0.05 -1.99,0.15 -0.71,0.1 -1.68,0.31 -2.9,0.61 l 1.07,-1.22 v 36.66 c 0,2.19 0.24,3.87 0.73,5.04 0.48,1.17 1.25,1.99 2.29,2.44 1.04,0.46 2.4,0.76 4.09,0.92 0.15,0.46 0.25,0.99 0.31,1.6 0.05,0.61 0.08,1.3 0.08,2.06 -0.76,-0.05 -1.72,-0.09 -2.86,-0.11 -1.15,-0.03 -2.37,-0.05 -3.67,-0.08 -1.3,-0.03 -2.58,-0.04 -3.86,-0.04 -1.28,0 -2.64,0.01 -4.09,0.04 -1.45,0.03 -2.8,0.05 -4.05,0.08 -1.25,0.02 -2.25,0.06 -3.02,0.11 z" id="path14-2" style="fill:#008732;stroke-width:0px"></path><path class="cls-6" d="m -672.00489,-385.03091 c -2.19,-3.92 -5.47,-7.21 -9.01,-9.16 -2.51,-1.38 -4.28,-2.08 -7.19,-2.69 -1.34,1.33 -2.12,2.07 -3.79,3.83 1.14,0.33 3.09,0.82 5.51,2.76 2.67,2.14 4.78,5.04 6.34,8.7 1.55,3.67 2.33,7.74 2.33,12.22 0,3.92 -0.6,7.46 -1.79,10.62 -1.19,3.16 -2.9,5.64 -5.12,7.45 -2.21,1.81 -4.9,2.71 -8.06,2.71 -2.9,0 -5.45,-0.66 -7.64,-1.99 -2.19,-1.32 -4.03,-3.14 -5.54,-5.46 -1.5,-2.32 -2.63,-4.95 -3.4,-7.9 -0.76,-2.95 -1.15,-6.03 -1.15,-9.24 0,-4.07 0.63,-7.64 1.91,-10.69 0.28,-0.66 0.34,-0.8 0.56,-1.24 -2.17,-0.44 -4.27,-1.7 -5.91,-3.17 -0.94,1.22 -2.43,3.28 -3.69,6.4 -1.3,3.21 -1.95,6.8 -1.95,10.77 0,5.09 1.06,9.65 3.17,13.67 2.11,4.02 5.07,7.19 8.86,9.51 3.79,2.32 8.23,3.48 13.33,3.48 3.77,0 7.2,-0.68 10.31,-2.02 3.11,-1.35 5.8,-3.23 8.1,-5.65 2.29,-2.42 4.05,-5.26 5.27,-8.51 1.22,-3.26 1.83,-6.8 1.83,-10.62 0,-5.24 -1.09,-9.82 -3.28,-13.75 z" id="path16-1" style="fill:#008732;stroke-width:0px"></path></g><g aria-label="Engineering &amp; Consulting" id="text28-7" style="font-weight:600;font-size:19.7506px;font-family:VollkornRoman-SemiBold, Vollkorn;font-variation-settings:'wght' 600;fill:#97a719" class="cls-3"><path d="m -720.58497,-337.08833 q 0.31601,0.0197 0.79003,0.0395 0.49376,0 1.02703,0.0197 0.55301,0 1.02703,0 0.49376,0 0.79002,0 v 10.46782 q 0,0.75052 0.13826,1.16528 0.13825,0.41477 0.53326,0.57277 0.39501,0.15801 1.08629,0.15801 l -0.11851,0.98753 q -0.55301,0 -1.30354,0 -0.73077,0 -1.52079,0 -0.77028,0.0197 -1.42205,0.0197 -0.65177,0.0197 -1.02703,0.0395 0,-0.29626 0.0198,-0.53327 0.0197,-0.25676 0.079,-0.41476 0.53327,-0.0395 0.82953,-0.19751 0.29626,-0.17775 0.41476,-0.59251 0.11851,-0.41477 0.11851,-1.20479 v -7.78174 q 0,-0.71102 -0.11851,-1.06653 -0.1185,-0.37526 -0.41476,-0.53327 -0.29626,-0.158 -0.82953,-0.1975 -0.0593,-0.17776 -0.079,-0.43452 -0.0198,-0.25675 -0.0198,-0.51351 z m 9.20378,9.9148 q 0.35551,0.079 0.59252,0.19751 0.25676,0.1185 0.45426,0.29626 -0.21725,0.67152 -0.37526,1.50104 -0.13825,0.80978 -0.23701,1.54055 -0.41476,-0.0197 -1.10603,-0.0197 -0.67152,0 -1.52079,-0.0197 -0.82953,0 -1.73806,0 l 0.11851,-0.98753 h 0.158 q 1.30354,0 1.97506,-0.27651 0.69127,-0.29626 1.04678,-0.84928 0.35551,-0.55301 0.63202,-1.38254 z m -1.34304,-5.41166 q -0.0197,0.49376 -0.0395,1.06653 0,0.55301 0,1.10603 0,0.57277 0,1.18504 0.0198,0.61227 0.0395,1.12578 -0.29626,0 -0.55302,-0.0197 -0.237,-0.0395 -0.47401,-0.0987 -0.079,-0.98753 -0.53327,-1.34304 -0.43451,-0.35551 -1.5998,-0.35551 h -1.38254 v -0.94803 h 1.38254 q 1.18504,0 1.61955,-0.31601 0.45427,-0.31601 0.47402,-1.24429 0.27651,-0.0987 0.53326,-0.1185 0.25676,-0.0395 0.53327,-0.0395 z m 1.28379,-4.50314 q 0.0395,0.43451 0.0987,1.02703 0.0593,0.59252 0.13826,1.16529 0.079,0.55301 0.17775,0.98753 -0.17775,0.13825 -0.45426,0.1975 -0.25676,0.0593 -0.59252,0.0593 -0.0593,-0.63202 -0.33576,-1.18503 -0.27651,-0.57277 -0.94803,-0.92828 -0.65177,-0.37526 -1.87631,-0.37526 h -2.19231 l 0.45426,-0.88878 q 1.54055,0 2.64658,0 1.10604,-0.0197 1.81706,-0.0395 0.71102,-0.0197 1.06653,-0.0197 z" style="font-weight:500;font-family:Vollkorn;-inkscape-font-specification:'Vollkorn Medium'" id="path2031"></path><path d="m -707.43107,-327.8648 v -2.05406 q 0,-0.51352 -0.0987,-0.80978 -0.079,-0.31601 -0.39502,-0.47401 -0.31601,-0.15801 -0.96778,-0.17776 0,-0.237 0.0395,-0.45426 0.0395,-0.21726 0.13825,-0.39501 0.75052,-0.0395 1.5998,-0.23701 0.84927,-0.19751 1.30354,-0.43451 0.1975,0.079 0.33576,0.2765 0.13825,0.19751 0.13825,0.65177 z m 8.05824,1.58005 q 0,1.00728 0.25676,1.36279 0.27651,0.35551 0.86903,0.35551 0.0593,0.19751 0.079,0.41476 0.0198,0.21726 0.0198,0.53327 -0.43451,-0.0395 -1.02703,-0.0592 -0.59252,0 -1.20479,0 -0.41476,0 -0.88877,0 -0.45427,0.0197 -0.86903,0.0197 -0.41476,0.0197 -0.73077,0.0395 0,-0.29626 0.0198,-0.53327 0.0198,-0.237 0.0987,-0.41476 0.65177,0 0.96778,-0.37526 0.31601,-0.37526 0.31601,-1.38254 v -2.74534 q 0,-1.36279 -0.47401,-1.85655 -0.47402,-0.49377 -1.26404,-0.49377 -0.49377,0 -0.98753,0.33576 -0.49377,0.33576 -0.82953,1.04678 -0.31601,0.71102 -0.31601,1.87631 v 1.87631 q 0,0.98753 0.27651,1.36279 0.29626,0.35551 1.00728,0.35551 0.079,0.19751 0.0987,0.43451 0.0198,0.21726 0.0198,0.51352 -0.2765,-0.0197 -0.69127,-0.0395 -0.41476,0 -0.86902,-0.0197 -0.45427,0 -0.88878,0 -0.41476,0 -0.88878,0 -0.45426,0.0197 -0.88877,0.0197 -0.43452,0.0197 -0.73078,0.0395 0,-0.29626 0.0197,-0.53327 0.0395,-0.25676 0.0988,-0.41476 0.77027,0 1.04678,-0.35551 0.29626,-0.37526 0.29626,-1.36279 v -3.63411 l 2.09356,-2.05407 q 0,0.23701 -0.0395,0.53327 -0.0197,0.29626 -0.1185,0.63202 0.079,-0.13825 0.158,-0.29626 0.079,-0.158 0.21726,-0.33576 0.35551,-0.45426 1.08628,-0.90853 0.73077,-0.45426 1.73805,-0.45426 0.77028,0 1.4418,0.31601 0.67152,0.29626 1.06653,1.00728 0.41476,0.69127 0.41476,1.89606 z" style="font-weight:500;font-family:Vollkorn;-inkscape-font-specification:'Vollkorn Medium'" id="path2033"></path><path d="m -693.1514,-318.75977 q -1.26404,0 -2.05406,-0.31601 -0.77028,-0.29626 -1.12579,-0.88878 -0.35551,-0.57277 -0.35551,-1.40229 0,-0.75053 0.41476,-1.30354 0.41477,-0.55302 1.16529,-0.84928 l 1.08628,0.11851 q -0.45426,0.37526 -0.63202,0.73077 -0.158,0.37526 -0.158,0.86902 0,0.94803 0.49376,1.42205 0.49377,0.49376 1.6788,0.49376 1.28379,0 2.01456,-0.61227 0.73078,-0.59251 0.73078,-1.40229 0,-0.45426 -0.23701,-0.73077 -0.21726,-0.25676 -0.86903,-0.39501 -0.65177,-0.11851 -1.9158,-0.11851 -0.86903,0 -1.4813,-0.0987 -0.61227,-0.079 -1.00728,-0.29626 -0.39501,-0.19751 -0.57277,-0.53327 -0.17775,-0.35551 -0.17775,-0.88877 0,-0.71102 0.39501,-1.32329 0.39501,-0.61227 0.98753,-1.08629 l 0.90853,0.51352 q -0.35551,0.29626 -0.53327,0.57277 -0.158,0.25676 -0.158,0.47401 0,0.35551 0.21725,0.53327 0.23701,0.158 0.86903,0.21725 0.65177,0.0395 1.8368,0.0395 1.28379,0 2.07382,0.21725 0.79002,0.21726 1.16528,0.71102 0.37526,0.47402 0.37526,1.32329 0,0.71103 -0.37526,1.42205 -0.37526,0.73077 -1.06653,1.30354 -0.67152,0.57276 -1.61955,0.92828 -0.94803,0.35551 -2.07381,0.35551 z m 0.53326,-7.66324 q -1.02703,0 -1.89605,-0.35551 -0.86903,-0.35551 -1.38255,-1.06653 -0.49376,-0.71102 -0.49376,-1.77755 0,-0.94803 0.41476,-1.67881 0.41476,-0.73077 1.24429,-1.16528 0.82952,-0.43451 2.03431,-0.43451 1.04678,0 1.75781,0.33576 0.73077,0.31601 1.20478,0.82952 0.47402,0.49377 0.67152,1.04678 0.21726,0.55302 0.21726,1.00728 0,0.88878 -0.43451,1.6393 -0.41477,0.75053 -1.26404,1.18504 -0.82953,0.43451 -2.07382,0.43451 z m 0.23701,-0.98753 q 0.63202,0 1.02703,-0.51351 0.39501,-0.53327 0.39501,-1.54055 0,-1.04678 -0.49376,-1.77755 -0.47401,-0.73078 -1.36279,-0.73078 -0.75052,0 -1.10604,0.63202 -0.35551,0.63202 -0.35551,1.46155 0,1.18503 0.49377,1.8368 0.51351,0.63202 1.40229,0.63202 z m 4.54264,-4.00937 q -0.31601,-0.079 -0.75052,-0.158 -0.41477,-0.079 -0.82953,-0.13826 -0.39501,-0.0593 -0.71102,-0.079 l -1.54055,-0.92828 h 3.67361 q 0.0988,0.27651 0.11851,0.63202 0.0395,0.33576 0.0395,0.67152 z" style="font-weight:500;font-family:Vollkorn;-inkscape-font-specification:'Vollkorn Medium'" id="path2035"></path><path d="m -686.41646,-323.61842 q 0,-0.23701 0.0198,-0.49377 0.0395,-0.25675 0.0988,-0.45426 0.79002,-0.0198 1.06653,-0.37526 0.27651,-0.35551 0.27651,-1.34304 v -3.69336 q 0,-0.47402 -0.0988,-0.77028 -0.079,-0.31601 -0.39501,-0.47401 -0.31601,-0.15801 -0.98753,-0.15801 0,-0.237 0.0395,-0.45426 0.0593,-0.21726 0.15801,-0.39501 0.39501,0 0.98753,-0.0988 0.59252,-0.0987 1.12578,-0.25675 0.53327,-0.15801 0.79003,-0.31601 0.1975,0.079 0.33576,0.2765 0.13825,0.19751 0.13825,0.59252 v 5.74743 q 0,0.98753 0.25676,1.34304 0.27651,0.35551 0.92828,0.37526 0.0592,0.19751 0.079,0.47401 0.0198,0.27651 0.0198,0.47402 -0.31601,-0.0197 -0.71102,-0.0395 -0.39501,0 -0.82953,-0.0197 -0.43451,0 -0.84927,0 -0.43452,0 -0.88878,0 -0.43451,0.0197 -0.84928,0.0197 -0.39501,0.0197 -0.71102,0.0395 z m 2.33057,-11.3171 q -0.57276,0 -0.94803,-0.33576 -0.35551,-0.35551 -0.35551,-0.86902 0,-0.59252 0.39502,-0.94803 0.39501,-0.35551 0.92827,-0.35551 0.61227,0 0.96778,0.35551 0.35551,0.35551 0.35551,0.92828 0,0.49376 -0.39501,0.86902 -0.37526,0.35551 -0.94803,0.35551 z" style="font-weight:500;font-family:Vollkorn;-inkscape-font-specification:'Vollkorn Medium'" id="path2037"></path><path d="m -678.71373,-327.8648 v -2.05406 q 0,-0.51352 -0.0987,-0.80978 -0.079,-0.31601 -0.39501,-0.47401 -0.31601,-0.15801 -0.96778,-0.17776 0,-0.237 0.0395,-0.45426 0.0395,-0.21726 0.13826,-0.39501 0.75052,-0.0395 1.59979,-0.23701 0.84928,-0.19751 1.30354,-0.43451 0.19751,0.079 0.33576,0.2765 0.13826,0.19751 0.13826,0.65177 z m 8.05825,1.58005 q 0,1.00728 0.25676,1.36279 0.27651,0.35551 0.86902,0.35551 0.0593,0.19751 0.079,0.41476 0.0198,0.21726 0.0198,0.53327 -0.43452,-0.0395 -1.02703,-0.0592 -0.59252,0 -1.20479,0 -0.41476,0 -0.88878,0 -0.45426,0.0197 -0.86902,0.0197 -0.41477,0.0197 -0.73078,0.0395 0,-0.29626 0.0198,-0.53327 0.0197,-0.237 0.0988,-0.41476 0.65177,0 0.96778,-0.37526 0.31601,-0.37526 0.31601,-1.38254 v -2.74534 q 0,-1.36279 -0.47402,-1.85655 -0.47401,-0.49377 -1.26404,-0.49377 -0.49376,0 -0.98753,0.33576 -0.49376,0.33576 -0.82952,1.04678 -0.31601,0.71102 -0.31601,1.87631 v 1.87631 q 0,0.98753 0.27651,1.36279 0.29626,0.35551 1.00728,0.35551 0.079,0.19751 0.0987,0.43451 0.0198,0.21726 0.0198,0.51352 -0.27651,-0.0197 -0.69127,-0.0395 -0.41476,0 -0.86903,-0.0197 -0.45426,0 -0.88877,0 -0.41477,0 -0.88878,0 -0.45426,0.0197 -0.88878,0.0197 -0.43451,0.0197 -0.73077,0.0395 0,-0.29626 0.0197,-0.53327 0.0395,-0.25676 0.0987,-0.41476 0.77028,0 1.04679,-0.35551 0.29625,-0.37526 0.29625,-1.36279 v -3.63411 l 2.09357,-2.05407 q 0,0.23701 -0.0395,0.53327 -0.0197,0.29626 -0.11851,0.63202 0.079,-0.13825 0.15801,-0.29626 0.079,-0.158 0.21725,-0.33576 0.35552,-0.45426 1.08629,-0.90853 0.73077,-0.45426 1.73805,-0.45426 0.77027,0 1.44179,0.31601 0.67153,0.29626 1.06654,1.00728 0.41476,0.69127 0.41476,1.89606 z" style="font-weight:500;font-family:Vollkorn;-inkscape-font-specification:'Vollkorn Medium'" id="path2039"></path><path d="m -663.7033,-323.49992 q -1.4813,0 -2.44908,-0.63202 -0.94803,-0.63202 -1.44179,-1.69855 -0.47402,-1.06653 -0.47402,-2.35032 0,-1.30354 0.51352,-2.37007 0.51351,-1.06653 1.46154,-1.69855 0.96778,-0.65177 2.27132,-0.65177 1.32329,0 2.13307,0.55301 0.80977,0.55302 1.20478,1.4813 0.41477,0.92828 0.47402,2.09356 -0.079,0.45427 -0.33576,0.75052 -0.39501,0 -1.08629,0 -0.67152,0 -1.52079,0.0198 -0.82953,0 -1.7183,0.0395 -0.86903,0.0197 -1.6393,0.0593 v -1.08628 h 4.06862 q 0,-1.30354 -0.45426,-2.09357 -0.43452,-0.79002 -1.26404,-0.79002 -0.47402,0 -0.90853,0.29626 -0.43451,0.29626 -0.71102,1.00728 -0.27651,0.69127 -0.27651,1.93556 0,0.98753 0.25676,1.89605 0.25676,0.88878 0.86902,1.46155 0.61227,0.55301 1.73806,0.55301 0.65177,0 1.28379,-0.2765 0.65177,-0.27651 1.14553,-0.79003 0.15801,0.079 0.29626,0.29626 0.158,0.21726 0.17776,0.41476 -0.69128,0.84928 -1.5998,1.22454 -0.88878,0.35551 -2.01456,0.35551 z" style="font-weight:500;font-family:Vollkorn;-inkscape-font-specification:'Vollkorn Medium'" id="path2041"></path><path d="m -654.12429,-323.49992 q -1.4813,0 -2.44908,-0.63202 -0.94802,-0.63202 -1.44179,-1.69855 -0.47401,-1.06653 -0.47401,-2.35032 0,-1.30354 0.51351,-2.37007 0.51352,-1.06653 1.46155,-1.69855 0.96778,-0.65177 2.27132,-0.65177 1.32329,0 2.13306,0.55301 0.80978,0.55302 1.20479,1.4813 0.41476,0.92828 0.47401,2.09356 -0.079,0.45427 -0.33576,0.75052 -0.39501,0 -1.08628,0 -0.67152,0 -1.5208,0.0198 -0.82952,0 -1.7183,0.0395 -0.86903,0.0197 -1.6393,0.0593 v -1.08628 h 4.06862 q 0,-1.30354 -0.45426,-2.09357 -0.43451,-0.79002 -1.26404,-0.79002 -0.47401,0 -0.90853,0.29626 -0.43451,0.29626 -0.71102,1.00728 -0.27651,0.69127 -0.27651,1.93556 0,0.98753 0.25676,1.89605 0.25676,0.88878 0.86903,1.46155 0.61227,0.55301 1.73805,0.55301 0.65177,0 1.28379,-0.2765 0.65177,-0.27651 1.14553,-0.79003 0.15801,0.079 0.29626,0.29626 0.15801,0.21726 0.17776,0.41476 -0.69127,0.84928 -1.5998,1.22454 -0.88878,0.35551 -2.01456,0.35551 z" style="font-weight:500;font-family:Vollkorn;-inkscape-font-specification:'Vollkorn Medium'" id="path2043"></path><path d="m -645.39455,-326.73902 q 0,0.84928 0.17775,1.30354 0.17776,0.45427 0.57277,0.63202 0.41476,0.17776 1.06653,0.23701 0.0593,0.17776 0.079,0.41476 0.0395,0.23701 0.0395,0.53327 -0.31601,-0.0197 -0.75053,-0.0395 -0.43451,0 -0.92828,-0.0197 -0.49376,0 -0.98753,0 -0.75052,0 -1.56029,0 -0.80978,0.0197 -1.26404,0.0592 0,-0.31601 0.0198,-0.55302 0.0197,-0.23701 0.0987,-0.39501 0.53327,-0.0395 0.80978,-0.19751 0.29626,-0.158 0.41476,-0.53326 0.1185,-0.37526 0.1185,-1.06654 v -1.7973 h 2.09357 z m 0,-2.72558 v 1.5998 h -2.09357 v -2.19232 l 2.09357,-1.91581 q 0,0.61227 -0.11851,1.14554 -0.1185,0.53327 -0.237,1.10603 z m -0.43452,-0.13825 q 0.19751,-0.53327 0.31601,-0.90853 0.13826,-0.39501 0.27651,-0.63202 0.43452,-0.69127 1.02703,-1.14554 0.61227,-0.45426 1.4023,-0.45426 0.75052,0 1.36279,0.47402 -0.0395,0.33576 -0.079,0.79002 -0.0395,0.43451 -0.0592,0.88878 0,0.43451 0,0.80977 -0.21725,0.079 -0.57276,0.13826 -0.35552,0.0593 -0.71103,0.0593 -0.0395,-0.88878 -0.29626,-1.18504 -0.237,-0.31601 -0.63201,-0.31601 -0.31601,0 -0.71103,0.37526 -0.37526,0.37526 -0.63202,0.98753 -0.25675,0.61227 -0.25675,1.34304 z m -1.65905,1.73805 v -2.05406 q 0,-0.51352 -0.0987,-0.80978 -0.079,-0.31601 -0.39501,-0.47401 -0.31601,-0.15801 -0.96778,-0.17776 0,-0.237 0.0395,-0.45426 0.0395,-0.21726 0.13825,-0.39501 0.75053,-0.0395 1.5998,-0.23701 0.84928,-0.19751 1.30354,-0.43451 0.19751,0.079 0.33576,0.2765 0.13826,0.19751 0.13826,0.65177 z" style="font-weight:500;font-family:Vollkorn;-inkscape-font-specification:'Vollkorn Medium'" id="path2045"></path><path d="m -640.33842,-323.61842 q 0,-0.23701 0.0198,-0.49377 0.0395,-0.25675 0.0988,-0.45426 0.79002,-0.0198 1.06653,-0.37526 0.27651,-0.35551 0.27651,-1.34304 v -3.69336 q 0,-0.47402 -0.0988,-0.77028 -0.079,-0.31601 -0.39501,-0.47401 -0.31601,-0.15801 -0.98753,-0.15801 0,-0.237 0.0395,-0.45426 0.0593,-0.21726 0.15801,-0.39501 0.39501,0 0.98753,-0.0988 0.59252,-0.0987 1.12578,-0.25675 0.53327,-0.15801 0.79003,-0.31601 0.1975,0.079 0.33576,0.2765 0.13825,0.19751 0.13825,0.59252 v 5.74743 q 0,0.98753 0.25676,1.34304 0.27651,0.35551 0.92828,0.37526 0.0592,0.19751 0.079,0.47401 0.0198,0.27651 0.0198,0.47402 -0.31601,-0.0197 -0.71102,-0.0395 -0.39501,0 -0.82953,-0.0197 -0.43451,0 -0.84927,0 -0.43452,0 -0.88878,0 -0.43451,0.0197 -0.84928,0.0197 -0.39501,0.0197 -0.71102,0.0395 z m 2.33057,-11.3171 q -0.57276,0 -0.94802,-0.33576 -0.35552,-0.35551 -0.35552,-0.86902 0,-0.59252 0.39502,-0.94803 0.39501,-0.35551 0.92827,-0.35551 0.61227,0 0.96778,0.35551 0.35551,0.35551 0.35551,0.92828 0,0.49376 -0.39501,0.86902 -0.37526,0.35551 -0.94803,0.35551 z" style="font-weight:500;font-family:Vollkorn;-inkscape-font-specification:'Vollkorn Medium'" id="path2047"></path><path d="m -632.63568,-327.8648 v -2.05406 q 0,-0.51352 -0.0988,-0.80978 -0.079,-0.31601 -0.39501,-0.47401 -0.31601,-0.15801 -0.96778,-0.17776 0,-0.237 0.0395,-0.45426 0.0395,-0.21726 0.13826,-0.39501 0.75052,-0.0395 1.5998,-0.23701 0.84927,-0.19751 1.30353,-0.43451 0.19751,0.079 0.33577,0.2765 0.13825,0.19751 0.13825,0.65177 z m 8.05824,1.58005 q 0,1.00728 0.25676,1.36279 0.27651,0.35551 0.86903,0.35551 0.0593,0.19751 0.079,0.41476 0.0198,0.21726 0.0198,0.53327 -0.43452,-0.0395 -1.02703,-0.0592 -0.59252,0 -1.20479,0 -0.41476,0 -0.88878,0 -0.45426,0.0197 -0.86902,0.0197 -0.41477,0.0197 -0.73078,0.0395 0,-0.29626 0.0198,-0.53327 0.0198,-0.237 0.0987,-0.41476 0.65177,0 0.96778,-0.37526 0.31601,-0.37526 0.31601,-1.38254 v -2.74534 q 0,-1.36279 -0.47402,-1.85655 -0.47401,-0.49377 -1.26404,-0.49377 -0.49376,0 -0.98753,0.33576 -0.49376,0.33576 -0.82952,1.04678 -0.31601,0.71102 -0.31601,1.87631 v 1.87631 q 0,0.98753 0.27651,1.36279 0.29626,0.35551 1.00728,0.35551 0.079,0.19751 0.0987,0.43451 0.0198,0.21726 0.0198,0.51352 -0.27651,-0.0197 -0.69127,-0.0395 -0.41476,0 -0.86903,-0.0197 -0.45426,0 -0.88877,0 -0.41477,0 -0.88878,0 -0.45426,0.0197 -0.88878,0.0197 -0.43451,0.0197 -0.73077,0.0395 0,-0.29626 0.0197,-0.53327 0.0395,-0.25676 0.0987,-0.41476 0.77028,0 1.04679,-0.35551 0.29626,-0.37526 0.29626,-1.36279 v -3.63411 l 2.09356,-2.05407 q 0,0.23701 -0.0395,0.53327 -0.0197,0.29626 -0.11851,0.63202 0.079,-0.13825 0.15801,-0.29626 0.079,-0.158 0.21726,-0.33576 0.35551,-0.45426 1.08628,-0.90853 0.73077,-0.45426 1.73805,-0.45426 0.77028,0 1.4418,0.31601 0.67152,0.29626 1.06653,1.00728 0.41476,0.69127 0.41476,1.89606 z" style="font-weight:500;font-family:Vollkorn;-inkscape-font-specification:'Vollkorn Medium'" id="path2049"></path><path d="m -618.35601,-318.75977 q -1.26404,0 -2.05406,-0.31601 -0.77028,-0.29626 -1.12579,-0.88878 -0.35551,-0.57277 -0.35551,-1.40229 0,-0.75053 0.41476,-1.30354 0.41477,-0.55302 1.16529,-0.84928 l 1.08628,0.11851 q -0.45426,0.37526 -0.63202,0.73077 -0.158,0.37526 -0.158,0.86902 0,0.94803 0.49376,1.42205 0.49377,0.49376 1.6788,0.49376 1.28379,0 2.01457,-0.61227 0.73077,-0.59251 0.73077,-1.40229 0,-0.45426 -0.23701,-0.73077 -0.21726,-0.25676 -0.86903,-0.39501 -0.65177,-0.11851 -1.9158,-0.11851 -0.86903,0 -1.4813,-0.0987 -0.61227,-0.079 -1.00728,-0.29626 -0.39501,-0.19751 -0.57277,-0.53327 -0.17775,-0.35551 -0.17775,-0.88877 0,-0.71102 0.39501,-1.32329 0.39501,-0.61227 0.98753,-1.08629 l 0.90853,0.51352 q -0.35551,0.29626 -0.53327,0.57277 -0.158,0.25676 -0.158,0.47401 0,0.35551 0.21725,0.53327 0.23701,0.158 0.86903,0.21725 0.65177,0.0395 1.83681,0.0395 1.28378,0 2.07381,0.21725 0.79002,0.21726 1.16528,0.71102 0.37527,0.47402 0.37527,1.32329 0,0.71103 -0.37527,1.42205 -0.37526,0.73077 -1.06653,1.30354 -0.67152,0.57276 -1.61955,0.92828 -0.94803,0.35551 -2.07381,0.35551 z m 0.53327,-7.66324 q -1.02704,0 -1.89606,-0.35551 -0.86903,-0.35551 -1.38254,-1.06653 -0.49377,-0.71102 -0.49377,-1.77755 0,-0.94803 0.41476,-1.67881 0.41477,-0.73077 1.24429,-1.16528 0.82953,-0.43451 2.03431,-0.43451 1.04678,0 1.75781,0.33576 0.73077,0.31601 1.20478,0.82952 0.47402,0.49377 0.67152,1.04678 0.21726,0.55302 0.21726,1.00728 0,0.88878 -0.43451,1.6393 -0.41477,0.75053 -1.26404,1.18504 -0.82953,0.43451 -2.07381,0.43451 z m 0.237,-0.98753 q 0.63202,0 1.02703,-0.51351 0.39502,-0.53327 0.39502,-1.54055 0,-1.04678 -0.49377,-1.77755 -0.47401,-0.73078 -1.36279,-0.73078 -0.75052,0 -1.10603,0.63202 -0.35552,0.63202 -0.35552,1.46155 0,1.18503 0.49377,1.8368 0.51352,0.63202 1.40229,0.63202 z m 4.54264,-4.00937 q -0.31601,-0.079 -0.75052,-0.158 -0.41476,-0.079 -0.82953,-0.13826 -0.39501,-0.0593 -0.71102,-0.079 l -1.54055,-0.92828 h 3.67362 q 0.0987,0.27651 0.1185,0.63202 0.0395,0.33576 0.0395,0.67152 z" style="font-weight:500;font-family:Vollkorn;-inkscape-font-specification:'Vollkorn Medium'" id="path2051"></path><path d="m -598.84246,-327.33153 q 0.57277,-0.90853 0.88878,-1.58005 0.31601,-0.69127 0.47402,-1.32329 0.17775,-0.77028 -0.11851,-1.10604 -0.29626,-0.35551 -1.30354,-0.53326 -0.0593,-0.23701 -0.0987,-0.45427 -0.0395,-0.237 -0.0395,-0.45426 0.41476,0.0197 0.98753,0.0395 0.59252,0.0197 1.08628,0.0197 0.49377,0 1.04678,-0.0197 0.57277,-0.0197 0.92828,-0.0395 0,0.19751 -0.0198,0.43451 -0.0197,0.23701 -0.0593,0.45427 -0.41476,0.13825 -0.67152,0.33576 -0.25676,0.1975 -0.41476,0.49376 -0.15801,0.29626 -0.29626,0.77028 -0.17776,0.59251 -0.39502,1.14553 -0.21725,0.55302 -0.51351,1.16529 -0.29626,0.61226 -0.73077,1.36279 z m 1.95531,1.46154 q 0.35551,0.35551 0.65177,0.55302 0.29626,0.1975 0.67152,0.29626 0.37527,0.079 0.94803,0.1185 0,0.21726 -0.0395,0.51352 -0.0197,0.2765 -0.0987,0.51351 -0.41476,0 -0.98753,0.0593 -0.57277,0.0395 -1.12579,0.13826 -0.55301,0.079 -0.92827,0.17775 -1.32329,-1.7578 -2.66634,-3.21935 -1.32329,-1.48129 -2.62683,-3.02184 -0.77027,-0.96778 -1.32329,-1.77755 -0.55301,-0.82953 -0.82952,-1.6393 -0.27651,-0.80978 -0.27651,-1.69855 0,-0.79003 0.37526,-1.46155 0.39501,-0.67152 1.16529,-1.08628 0.79002,-0.43451 1.95531,-0.43451 0.88877,0 1.54054,0.17775 0.67152,0.15801 1.34305,0.51352 -0.0988,0.53326 -0.11851,1.16528 -0.0198,0.63202 0,1.26404 -0.27651,0.0987 -0.61227,0.13826 -0.31601,0.0395 -0.61227,0.0395 -0.079,-1.26404 -0.47401,-1.79731 -0.37526,-0.53326 -1.18504,-0.53326 -0.63202,0 -1.04678,0.41476 -0.41476,0.41476 -0.41476,1.20478 0,0.55302 0.13825,1.08629 0.15801,0.53326 0.55302,1.18503 0.41476,0.63202 1.16529,1.58005 0.29625,0.37526 0.69127,0.88878 0.41476,0.49376 0.98753,1.16528 0.57276,0.65177 1.34304,1.50105 0.79002,0.84928 1.8368,1.97506 z m -5.70792,0.84928 q 0.84928,0 1.54055,-0.31601 0.69127,-0.33576 1.40229,-1.12579 l 0.69127,0.80978 q -0.88878,1.14553 -1.85656,1.65905 -0.94802,0.51351 -2.17256,0.51351 -1.18504,0 -2.01456,-0.35551 -0.82953,-0.37526 -1.34304,-0.98753 -0.51352,-0.61227 -0.75053,-1.36279 -0.21725,-0.77027 -0.21725,-1.5603 0,-1.52079 0.82952,-2.60708 0.84928,-1.08628 2.11332,-1.81705 l 0.39501,0.77027 q -0.53327,0.51352 -0.94803,1.24429 -0.41476,0.73077 -0.41476,1.81705 0,1.08629 0.37526,1.83681 0.37526,0.73077 1.00728,1.10603 0.63202,0.37527 1.36279,0.37527 z" style="font-weight:500;font-family:Vollkorn;-inkscape-font-specification:'Vollkorn Medium'" id="path2053"></path><path d="m -582.5285,-323.49992 q -1.87631,0 -3.29835,-0.86902 -1.42205,-0.88878 -2.25157,-2.44908 -0.80978,-1.58005 -0.80978,-3.63411 0,-1.69855 0.55302,-2.96259 0.55302,-1.26404 1.4813,-2.11331 0.94802,-0.84928 2.13306,-1.26404 1.18504,-0.41476 2.46883,-0.41476 1.20478,0 2.25156,0.25675 1.04679,0.25676 2.11332,0.77028 -0.13826,0.69127 -0.17776,1.48129 -0.0395,0.77027 -0.0395,1.58005 -0.25676,0.0988 -0.55302,0.158 -0.29625,0.0395 -0.63201,0.0395 -0.0395,-1.34305 -0.39502,-2.07382 -0.35551,-0.73077 -0.98753,-1.00728 -0.61227,-0.27651 -1.44179,-0.27651 -1.16529,0 -2.01456,0.45427 -0.82953,0.43451 -1.36279,1.18503 -0.51352,0.73078 -0.77028,1.6788 -0.237,0.94803 -0.237,1.97506 0,1.73806 0.55301,3.14035 0.57277,1.40229 1.65905,2.23182 1.08629,0.80977 2.64658,0.80977 0.90853,0 1.85656,-0.29626 0.94803,-0.29626 1.7578,-0.80977 0.13826,0.0987 0.23701,0.31601 0.1185,0.1975 0.15801,0.35551 -1.10604,0.86903 -2.25157,1.30354 -1.12579,0.43451 -2.64658,0.43451 z" style="font-weight:500;font-family:Vollkorn;-inkscape-font-specification:'Vollkorn Medium'" id="path2055"></path><path d="m -571.38918,-323.49992 q -1.40229,0 -2.44907,-0.57277 -1.02704,-0.59251 -1.5998,-1.6393 -0.55302,-1.04678 -0.55302,-2.46882 0,-1.38254 0.59252,-2.44907 0.61227,-1.06654 1.65905,-1.65906 1.04678,-0.61226 2.37007,-0.61226 1.4813,0 2.50833,0.59251 1.02703,0.59252 1.56029,1.6393 0.53327,1.04679 0.53327,2.44908 0,1.36279 -0.57277,2.44907 -0.57276,1.06654 -1.61955,1.6788 -1.02703,0.59252 -2.42932,0.59252 z m 0.19751,-1.04678 q 1.10603,0 1.6393,-0.92828 0.53326,-0.94803 0.53326,-2.44907 0,-1.22454 -0.35551,-2.11332 -0.33576,-0.90852 -0.92828,-1.36279 -0.57276,-0.47401 -1.26403,-0.47401 -1.08629,0 -1.61955,0.90852 -0.53327,0.90853 -0.53327,2.33058 0,1.26403 0.29626,2.19231 0.31601,0.92828 0.88878,1.42205 0.57276,0.47401 1.34304,0.47401 z" style="font-weight:500;font-family:Vollkorn;-inkscape-font-specification:'Vollkorn Medium'" id="path2057"></path><path d="m -563.86424,-327.8648 v -2.05406 q 0,-0.51352 -0.0987,-0.80978 -0.079,-0.31601 -0.39501,-0.47401 -0.31601,-0.15801 -0.96778,-0.17776 0,-0.237 0.0395,-0.45426 0.0395,-0.21726 0.13825,-0.39501 0.75053,-0.0395 1.5998,-0.23701 0.84928,-0.19751 1.30354,-0.43451 0.19751,0.079 0.33576,0.2765 0.13826,0.19751 0.13826,0.65177 z m 8.05825,1.58005 q 0,1.00728 0.25675,1.36279 0.27651,0.35551 0.86903,0.35551 0.0593,0.19751 0.079,0.41476 0.0198,0.21726 0.0198,0.53327 -0.43451,-0.0395 -1.02703,-0.0592 -0.59251,0 -1.20478,0 -0.41477,0 -0.88878,0 -0.45426,0.0197 -0.86903,0.0197 -0.41476,0.0197 -0.73077,0.0395 0,-0.29626 0.0197,-0.53327 0.0198,-0.237 0.0987,-0.41476 0.65177,0 0.96778,-0.37526 0.31601,-0.37526 0.31601,-1.38254 v -2.74534 q 0,-1.36279 -0.47401,-1.85655 -0.47402,-0.49377 -1.26404,-0.49377 -0.49376,0 -0.98753,0.33576 -0.49376,0.33576 -0.82952,1.04678 -0.31601,0.71102 -0.31601,1.87631 v 1.87631 q 0,0.98753 0.2765,1.36279 0.29626,0.35551 1.00728,0.35551 0.079,0.19751 0.0988,0.43451 0.0198,0.21726 0.0198,0.51352 -0.27651,-0.0197 -0.69127,-0.0395 -0.41477,0 -0.86903,-0.0197 -0.45426,0 -0.88878,0 -0.41476,0 -0.88877,0 -0.45427,0.0197 -0.88878,0.0197 -0.43451,0.0197 -0.73077,0.0395 0,-0.29626 0.0198,-0.53327 0.0395,-0.25676 0.0987,-0.41476 0.77027,0 1.04678,-0.35551 0.29626,-0.37526 0.29626,-1.36279 v -3.63411 l 2.09357,-2.05407 q 0,0.23701 -0.0395,0.53327 -0.0198,0.29626 -0.1185,0.63202 0.079,-0.13825 0.15801,-0.29626 0.079,-0.158 0.21725,-0.33576 0.35551,-0.45426 1.08629,-0.90853 0.73077,-0.45426 1.73805,-0.45426 0.77027,0 1.44179,0.31601 0.67152,0.29626 1.06653,1.00728 0.41477,0.69127 0.41477,1.89606 z" style="font-weight:500;font-family:Vollkorn;-inkscape-font-specification:'Vollkorn Medium'" id="path2059"></path><path d="m -546.66148,-332.22968 q -0.0198,0.49376 -0.0198,1.02703 0,0.53326 0.079,1.04678 -0.21726,0.1185 -0.53327,0.19751 -0.29626,0.0593 -0.61227,0.0593 -0.0395,-0.53327 -0.31601,-1.00728 -0.25675,-0.47402 -0.71102,-0.77028 -0.45426,-0.29626 -1.08628,-0.29626 -0.57277,0 -0.90853,0.27651 -0.33576,0.27651 -0.33576,0.73077 0,0.31601 0.13826,0.57277 0.13825,0.23701 0.63201,0.53327 0.49377,0.27651 1.5208,0.69127 1.08628,0.39501 1.69855,0.80977 0.61227,0.39502 0.86903,0.88878 0.27651,0.47402 0.27651,1.18504 0,0.82952 -0.49377,1.46154 -0.47401,0.63202 -1.34304,0.98753 -0.84927,0.33576 -1.93556,0.33576 -1.20478,0 -1.93556,-0.17775 -0.71102,-0.19751 -1.42204,-0.53327 0.0593,-0.33576 0.0593,-0.79002 0.0198,-0.45427 0.0198,-0.88878 0,-0.45426 -0.0395,-0.77027 0.17776,-0.13826 0.51352,-0.19751 0.33576,-0.0592 0.65177,-0.0592 0.158,1.20478 0.73077,1.7973 0.59252,0.59252 1.5603,0.59252 0.73077,0 1.14553,-0.31601 0.43451,-0.33576 0.43451,-0.86903 0,-0.33576 -0.17775,-0.59251 -0.15801,-0.25676 -0.59252,-0.49377 -0.43451,-0.25676 -1.30354,-0.59252 -1.02703,-0.41476 -1.6788,-0.79002 -0.63202,-0.37526 -0.92828,-0.88878 -0.29626,-0.53326 -0.29626,-1.34304 0,-0.63202 0.31601,-1.10603 0.31601,-0.47402 0.80978,-0.77028 0.51351,-0.316 1.10603,-0.45426 0.61227,-0.158 1.16529,-0.158 0.94803,0 1.6393,0.17775 0.69127,0.15801 1.30354,0.49377 z" style="font-weight:500;font-family:Vollkorn;-inkscape-font-specification:'Vollkorn Medium'" id="path2061"></path><path d="m -540.73631,-323.59867 q -1.36279,0 -2.13306,-0.77027 -0.75053,-0.77028 -0.75053,-2.76509 v -2.78483 q 0,-0.75053 -0.1975,-1.08629 -0.19751,-0.35551 -1.08629,-0.37526 0,-0.237 0.0197,-0.43451 0.0395,-0.21726 0.13826,-0.41476 0.73077,-0.0395 1.50104,-0.23701 0.79003,-0.19751 1.24429,-0.43451 0.19751,0.079 0.33576,0.2765 0.13826,0.19751 0.13826,0.65177 v 4.38464 q 0,1.32329 0.33576,1.99481 0.33576,0.67152 1.18503,0.67152 0.92828,0 1.5603,-0.80978 0.63202,-0.80977 0.63202,-2.50832 v -1.77756 q 0,-0.75052 -0.25676,-1.08628 -0.23701,-0.35551 -1.20479,-0.37526 0,-0.23701 0.0198,-0.43451 0.0197,-0.21726 0.13825,-0.41477 0.86903,-0.0395 1.65905,-0.1975 0.80977,-0.17776 1.26404,-0.37526 0.1975,0.079 0.33576,0.2765 0.13825,0.19751 0.13825,0.65177 v 5.66843 l -1.81705,0.73077 q -0.0988,0.27651 -0.27651,0.53327 -0.17776,0.25675 -0.41476,0.47401 -0.49377,0.47401 -1.08629,0.73077 -0.59251,0.23701 -1.42204,0.23701 z m 3.63411,0.0988 q -0.23701,-0.0988 -0.39501,-0.29626 -0.13826,-0.21725 -0.13826,-0.84927 0,-0.23701 0.0395,-0.63202 0.0395,-0.41476 0.158,-1.04678 l 1.7183,-0.21726 q 0,0.49376 0.079,0.80977 0.079,0.31601 0.33576,0.45427 0.25675,0.13825 0.79002,0.13825 0,0.23701 -0.0198,0.51352 -0.0197,0.27651 -0.1185,0.51351 -0.55302,0.0197 -1.24429,0.17776 -0.69127,0.158 -1.20479,0.43451 z" style="font-weight:500;font-family:Vollkorn;-inkscape-font-specification:'Vollkorn Medium'" id="path2063"></path><path d="m -533.13234,-323.61842 q 0,-0.23701 0.0198,-0.49377 0.0197,-0.25675 0.079,-0.45426 0.79002,-0.0198 1.06653,-0.37526 0.29626,-0.35551 0.29626,-1.34304 v -8.67052 q 0,-0.45426 -0.0987,-0.75052 -0.0987,-0.29626 -0.41476,-0.45426 -0.31601,-0.15801 -0.96778,-0.15801 0,-0.23701 0.0395,-0.45426 0.0395,-0.21726 0.13825,-0.39501 0.41476,0 1.00728,-0.0988 0.59252,-0.0987 1.10604,-0.25675 0.53326,-0.15801 0.79002,-0.31601 0.19751,0.079 0.33576,0.2765 0.13825,0.19751 0.13825,0.59252 v 10.68508 q 0,0.98753 0.25676,1.34304 0.27651,0.35551 0.92828,0.37526 0.0593,0.19751 0.079,0.47401 0.0395,0.27651 0.0395,0.47402 -0.33576,-0.0197 -0.73077,-0.0395 -0.39501,0 -0.82952,-0.0197 -0.43452,0 -0.84928,0 -0.41476,0 -0.86903,0 -0.45426,0.0197 -0.84927,0.0197 -0.39501,0.0197 -0.71102,0.0395 z" style="font-weight:500;font-family:Vollkorn;-inkscape-font-specification:'Vollkorn Medium'" id="path2065"></path><path d="m -523.45456,-323.49992 q -1.22454,0 -1.83681,-0.63202 -0.59251,-0.63202 -0.59251,-2.07381 v -5.09566 q -0.29626,-0.0988 -0.63202,-0.158 -0.31601,-0.079 -0.79003,-0.0987 0,-0.27651 0.0395,-0.49377 0.0395,-0.21725 0.13826,-0.47401 h 1.24429 v -2.54783 q 0.47401,-0.0987 0.92827,-0.33576 0.47402,-0.23701 0.79003,-0.51352 0.21725,0.079 0.29626,0.25676 0.079,0.17776 0.079,0.82953 v 2.31082 h 2.52808 q 0,0.237 -0.0395,0.49376 -0.0395,0.25676 -0.13826,0.49377 -0.71102,0 -1.30354,0.079 -0.57277,0.079 -1.04678,0.17776 v 4.68089 q 0,0.69127 0.1185,1.12578 0.13826,0.41476 0.37526,0.61227 0.25676,0.19751 0.61227,0.19751 0.39502,0 0.69127,-0.0988 0.31601,-0.1185 0.59252,-0.33576 0.25676,0.31601 0.29626,0.75053 -0.33576,0.35551 -1.00728,0.61226 -0.67152,0.23701 -1.34304,0.23701 z" style="font-weight:500;font-family:Vollkorn;-inkscape-font-specification:'Vollkorn Medium'" id="path2067"></path><path d="m -519.87971,-323.61842 q 0,-0.23701 0.0198,-0.49377 0.0395,-0.25675 0.0988,-0.45426 0.79002,-0.0198 1.06653,-0.37526 0.27651,-0.35551 0.27651,-1.34304 v -3.69336 q 0,-0.47402 -0.0988,-0.77028 -0.079,-0.31601 -0.39501,-0.47401 -0.31601,-0.15801 -0.98753,-0.15801 0,-0.237 0.0395,-0.45426 0.0593,-0.21726 0.15801,-0.39501 0.39501,0 0.98753,-0.0988 0.59252,-0.0987 1.12578,-0.25675 0.53327,-0.15801 0.79003,-0.31601 0.1975,0.079 0.33576,0.2765 0.13825,0.19751 0.13825,0.59252 v 5.74743 q 0,0.98753 0.25676,1.34304 0.27651,0.35551 0.92828,0.37526 0.0592,0.19751 0.079,0.47401 0.0198,0.27651 0.0198,0.47402 -0.31601,-0.0197 -0.71102,-0.0395 -0.39501,0 -0.82953,-0.0197 -0.43451,0 -0.84927,0 -0.43452,0 -0.88878,0 -0.43451,0.0197 -0.84928,0.0197 -0.39501,0.0197 -0.71102,0.0395 z m 2.33057,-11.3171 q -0.57276,0 -0.94803,-0.33576 -0.35551,-0.35551 -0.35551,-0.86902 0,-0.59252 0.39502,-0.94803 0.39501,-0.35551 0.92827,-0.35551 0.61227,0 0.96778,0.35551 0.35551,0.35551 0.35551,0.92828 0,0.49376 -0.39501,0.86902 -0.37526,0.35551 -0.94803,0.35551 z" style="font-weight:500;font-family:Vollkorn;-inkscape-font-specification:'Vollkorn Medium'" id="path2069"></path><path d="m -512.17698,-327.8648 v -2.05406 q 0,-0.51352 -0.0988,-0.80978 -0.079,-0.31601 -0.39501,-0.47401 -0.31601,-0.15801 -0.96778,-0.17776 0,-0.237 0.0395,-0.45426 0.0395,-0.21726 0.13826,-0.39501 0.75052,-0.0395 1.5998,-0.23701 0.84927,-0.19751 1.30354,-0.43451 0.1975,0.079 0.33576,0.2765 0.13825,0.19751 0.13825,0.65177 z m 8.05824,1.58005 q 0,1.00728 0.25676,1.36279 0.27651,0.35551 0.86903,0.35551 0.0593,0.19751 0.079,0.41476 0.0197,0.21726 0.0197,0.53327 -0.43451,-0.0395 -1.02703,-0.0592 -0.59252,0 -1.20479,0 -0.41476,0 -0.88877,0 -0.45427,0.0197 -0.86903,0.0197 -0.41476,0.0197 -0.73077,0.0395 0,-0.29626 0.0198,-0.53327 0.0197,-0.237 0.0987,-0.41476 0.65177,0 0.96778,-0.37526 0.31601,-0.37526 0.31601,-1.38254 v -2.74534 q 0,-1.36279 -0.47402,-1.85655 -0.47401,-0.49377 -1.26403,-0.49377 -0.49377,0 -0.98753,0.33576 -0.49377,0.33576 -0.82953,1.04678 -0.31601,0.71102 -0.31601,1.87631 v 1.87631 q 0,0.98753 0.27651,1.36279 0.29626,0.35551 1.00728,0.35551 0.079,0.19751 0.0987,0.43451 0.0197,0.21726 0.0197,0.51352 -0.2765,-0.0197 -0.69127,-0.0395 -0.41476,0 -0.86902,-0.0197 -0.45427,0 -0.88878,0 -0.41476,0 -0.88878,0 -0.45426,0.0197 -0.88877,0.0197 -0.43452,0.0197 -0.73078,0.0395 0,-0.29626 0.0197,-0.53327 0.0395,-0.25676 0.0988,-0.41476 0.77027,0 1.04678,-0.35551 0.29626,-0.37526 0.29626,-1.36279 v -3.63411 l 2.09356,-2.05407 q 0,0.23701 -0.0395,0.53327 -0.0197,0.29626 -0.1185,0.63202 0.079,-0.13825 0.158,-0.29626 0.079,-0.158 0.21726,-0.33576 0.35551,-0.45426 1.08628,-0.90853 0.73077,-0.45426 1.73805,-0.45426 0.77028,0 1.4418,0.31601 0.67152,0.29626 1.06653,1.00728 0.41476,0.69127 0.41476,1.89606 z" style="font-weight:500;font-family:Vollkorn;-inkscape-font-specification:'Vollkorn Medium'" id="path2071"></path><path d="m -497.8973,-318.75977 q -1.26404,0 -2.05406,-0.31601 -0.77028,-0.29626 -1.12579,-0.88878 -0.35551,-0.57277 -0.35551,-1.40229 0,-0.75053 0.41476,-1.30354 0.41477,-0.55302 1.16529,-0.84928 l 1.08628,0.11851 q -0.45426,0.37526 -0.63202,0.73077 -0.158,0.37526 -0.158,0.86902 0,0.94803 0.49376,1.42205 0.49377,0.49376 1.6788,0.49376 1.28379,0 2.01457,-0.61227 0.73077,-0.59251 0.73077,-1.40229 0,-0.45426 -0.23701,-0.73077 -0.21726,-0.25676 -0.86903,-0.39501 -0.65177,-0.11851 -1.9158,-0.11851 -0.86903,0 -1.4813,-0.0987 -0.61227,-0.079 -1.00728,-0.29626 -0.39501,-0.19751 -0.57277,-0.53327 -0.17775,-0.35551 -0.17775,-0.88877 0,-0.71102 0.39501,-1.32329 0.39501,-0.61227 0.98753,-1.08629 l 0.90853,0.51352 q -0.35551,0.29626 -0.53327,0.57277 -0.158,0.25676 -0.158,0.47401 0,0.35551 0.21725,0.53327 0.23701,0.158 0.86903,0.21725 0.65177,0.0395 1.8368,0.0395 1.28379,0 2.07382,0.21725 0.79002,0.21726 1.16528,0.71102 0.37526,0.47402 0.37526,1.32329 0,0.71103 -0.37526,1.42205 -0.37526,0.73077 -1.06653,1.30354 -0.67152,0.57276 -1.61955,0.92828 -0.94803,0.35551 -2.07381,0.35551 z m 0.53326,-7.66324 q -1.02703,0 -1.89605,-0.35551 -0.86903,-0.35551 -1.38254,-1.06653 -0.49377,-0.71102 -0.49377,-1.77755 0,-0.94803 0.41476,-1.67881 0.41477,-0.73077 1.24429,-1.16528 0.82953,-0.43451 2.03431,-0.43451 1.04678,0 1.75781,0.33576 0.73077,0.31601 1.20478,0.82952 0.47402,0.49377 0.67152,1.04678 0.21726,0.55302 0.21726,1.00728 0,0.88878 -0.43451,1.6393 -0.41477,0.75053 -1.26404,1.18504 -0.82953,0.43451 -2.07382,0.43451 z m 0.23701,-0.98753 q 0.63202,0 1.02703,-0.51351 0.39502,-0.53327 0.39502,-1.54055 0,-1.04678 -0.49377,-1.77755 -0.47401,-0.73078 -1.36279,-0.73078 -0.75052,0 -1.10603,0.63202 -0.35552,0.63202 -0.35552,1.46155 0,1.18503 0.49377,1.8368 0.51352,0.63202 1.40229,0.63202 z m 4.54264,-4.00937 q -0.31601,-0.079 -0.75052,-0.158 -0.41477,-0.079 -0.82953,-0.13826 -0.39501,-0.0593 -0.71102,-0.079 l -1.54055,-0.92828 h 3.67362 q 0.0987,0.27651 0.1185,0.63202 0.0395,0.33576 0.0395,0.67152 z" style="font-weight:500;font-family:Vollkorn;-inkscape-font-specification:'Vollkorn Medium'" id="path2073"></path></g></g></g></svg>