<svg width="31" height="30" viewBox="0 0 31 30" fill="none" xmlns="http://www.w3.org/2000/svg">
<path d="M29.0919 8.02526C29.3576 8.02526 29.5947 8.09167 29.8035 8.2245C30.0122 8.35733 30.1735 8.51862 30.2873 8.70837C30.4012 8.89813 30.4581 9.12583 30.4581 9.39148V20.3213C30.4581 20.7008 30.3253 21.0234 30.0596 21.289C29.794 21.5547 29.4714 21.6875 29.0919 21.6875H11.7864C11.4069 21.6875 11.0843 21.5547 10.8187 21.289C10.553 21.0234 10.4202 20.7008 10.4202 20.3213V9.39148C10.4202 9.01198 10.553 8.6894 10.8187 8.42374C11.0843 8.15809 11.4069 8.02526 11.7864 8.02526H29.0919ZM11.7864 8.87915C11.5587 8.87915 11.4069 8.993 11.331 9.22071L18.8452 14.9702C19.3006 15.3497 19.8319 15.5395 20.4391 15.5395C21.0464 15.5395 21.5966 15.3497 22.09 14.9702L29.5473 9.22071C29.4714 8.993 29.3196 8.87915 29.0919 8.87915H11.7864ZM29.6042 19.4674V10.2454L22.6023 15.6533C21.9572 16.1467 21.2361 16.3934 20.4391 16.3934C19.6422 16.3934 18.9211 16.1467 18.276 15.6533L11.2741 10.2454V19.4674L16.0558 15.7672C16.2835 15.5774 16.4923 15.5964 16.682 15.8241C16.8718 16.0518 16.8528 16.2606 16.6251 16.4503L11.331 20.4921C11.4069 20.7198 11.5587 20.8336 11.7864 20.8336H29.0919C29.3196 20.8336 29.4714 20.7198 29.5473 20.4921L24.3101 16.4503C24.0824 16.2606 24.0539 16.0518 24.2247 15.8241C24.3955 15.5964 24.5947 15.5774 24.8224 15.7672L29.6042 19.4674ZM9.05395 15.8241C9.3196 15.8241 9.45243 15.9664 9.45243 16.2511C9.45243 16.5357 9.3196 16.678 9.05395 16.678H3.58905C3.28545 16.678 3.13364 16.5357 3.13364 16.2511C3.13364 15.9664 3.28545 15.8241 3.58905 15.8241H9.05395ZM9.05395 18.1012C9.3196 18.1012 9.45243 18.2435 9.45243 18.5281C9.45243 18.8127 9.3196 18.9551 9.05395 18.9551H1.76742C1.46381 18.9551 1.31201 18.8127 1.31201 18.5281C1.31201 18.2435 1.46381 18.1012 1.76742 18.1012H9.05395ZM9.05395 13.4902C9.3196 13.4902 9.45243 13.6325 9.45243 13.9171C9.45243 14.2017 9.3196 14.344 9.05395 14.344H5.41068C5.10708 14.344 4.95528 14.2017 4.95528 13.9171C4.95528 13.6325 5.10708 13.4902 5.41068 13.4902H9.05395ZM9.05395 11.2131C9.3196 11.2131 9.45243 11.3554 9.45243 11.6401C9.45243 11.9247 9.3196 12.067 9.05395 12.067H7.23232C6.92871 12.067 6.77691 11.9247 6.77691 11.6401C6.77691 11.3554 6.92871 11.2131 7.23232 11.2131H9.05395Z" fill="#13C5DD"/>
</svg>
