<svg width="31" height="30" viewBox="0 0 31 30" fill="none" xmlns="http://www.w3.org/2000/svg">
<path d="M8.26374 3.41451C8.26374 3.41451 8.78556 2.89268 9.82921 1.84904C10.8729 0.805399 12.8747 0.283577 15.8349 0.283577C18.7951 0.283577 21.3188 1.32722 23.4061 3.41451C25.4933 5.50179 26.537 8.02551 26.537 10.9857C26.537 12.276 26.0531 13.9553 25.0854 16.0236C24.1176 18.0919 22.9032 20.1602 21.4421 22.2285C19.981 24.2969 18.871 25.8339 18.1119 26.8396C17.3529 27.8452 16.7267 28.6517 16.2334 29.2589C16.1195 29.3728 15.9867 29.4297 15.8349 29.4297C15.6831 29.4297 15.5503 29.3728 15.4364 29.2589C14.9431 28.6517 14.3169 27.8452 13.5579 26.8396C12.7988 25.8339 11.6888 24.2969 10.2277 22.2285C8.76659 20.1602 7.55217 18.0919 6.58443 16.0236C5.61668 13.9553 5.13281 12.276 5.13281 10.9857C5.13281 8.02551 6.17646 5.50179 8.26374 3.41451ZM15.8349 28.1773C16.5939 27.2285 17.3814 26.1944 18.1973 25.0748C19.0133 23.9553 20.0474 22.4752 21.2998 20.6346C22.5522 18.794 23.5768 17.0008 24.3738 15.2551C25.1708 13.5094 25.5692 12.0862 25.5692 10.9857C25.5692 8.29117 24.6205 5.99515 22.7229 4.09762C20.8254 2.20008 18.5294 1.25132 15.8349 1.25132C13.1404 1.25132 10.8444 2.20008 8.94685 4.09762C7.04932 5.99515 6.10055 8.29117 6.10055 10.9857C6.10055 12.0862 6.49904 13.5094 7.296 15.2551C8.09296 17.0008 9.11763 18.794 10.37 20.6346C11.6224 22.4752 12.6565 23.9553 13.4725 25.0748C14.2884 26.1944 15.0759 27.2285 15.8349 28.1773ZM22.4383 9.10711C22.5522 9.22096 22.6091 9.35379 22.6091 9.50559C22.6091 9.84715 22.4573 10.0179 22.1537 10.0179H20.6736V15.369C20.6736 15.6726 20.5218 15.8244 20.2182 15.8244H11.4516C11.148 15.8244 10.9962 15.6726 10.9962 15.369V10.0179H9.51611C9.36431 10.0179 9.23148 9.94202 9.11763 9.79022C8.92788 9.56252 8.96583 9.33481 9.23148 9.10711L15.5503 4.2684C15.74 4.11659 15.9298 4.11659 16.1195 4.2684L22.4383 9.10711ZM16.8026 14.8566V11.9534H14.8672V14.8566H16.8026ZM20.2182 9.05018H20.7305L15.8349 5.29306L10.9393 9.05018H11.4516C11.7932 9.05018 11.9639 9.20198 11.9639 9.50559V14.8566H13.8994V11.4411C13.8994 11.1375 14.0512 10.9857 14.3548 10.9857H17.315C17.6186 10.9857 17.7704 11.1375 17.7704 11.4411V14.8566H19.7059V9.50559C19.7059 9.20198 19.8766 9.05018 20.2182 9.05018Z" fill="#13C5DD"/>
</svg>
