<svg width="32" height="30" viewBox="0 0 32 30" fill="none" xmlns="http://www.w3.org/2000/svg">
<path d="M29.8577 22.7693C30.2372 23.035 30.4744 23.386 30.5693 23.8225C30.6641 24.2589 30.5977 24.6859 30.37 25.1033L28.8899 27.5511C28.3966 28.3481 27.6945 28.8794 26.7837 29.1451C26.0626 29.3348 25.3036 29.4297 24.5066 29.4297C20.2182 29.4297 15.3036 26.6593 9.76282 21.1185C3.12145 14.4771 0.445928 8.8035 1.73625 4.09762C2.0019 3.1868 2.53321 2.48472 3.33018 1.99136L5.778 0.51128C6.19545 0.283577 6.6224 0.217163 7.05883 0.31204C7.49526 0.406918 7.84631 0.644108 8.11196 1.02361L12.0399 6.94392C12.3055 7.32343 12.4004 7.7314 12.3245 8.16783C12.2486 8.60426 12.0399 8.97428 11.6983 9.27789L9.47819 10.9857C9.13663 11.2513 9.06073 11.5549 9.25048 11.8965L9.42126 12.238C10.3321 13.8699 11.6888 15.5872 13.4915 17.3898C15.2941 19.1925 17.0114 20.5492 18.6433 21.46L18.9848 21.6308C19.3264 21.8206 19.63 21.7447 19.8956 21.4031L21.6034 19.183C21.907 18.8415 22.277 18.6327 22.7135 18.5568C23.1499 18.4809 23.5579 18.5758 23.9374 18.8415L29.8577 22.7693ZM29.5161 24.591C29.7438 24.1735 29.6679 23.832 29.2884 23.5663L23.3681 19.6384C22.9886 19.3728 22.666 19.4297 22.4004 19.8092L20.6926 22.0293C20.427 22.3709 20.0854 22.5796 19.6679 22.6555C19.2505 22.7314 18.852 22.6745 18.4725 22.4847L18.1879 22.3139C16.4801 21.3652 14.6869 19.9515 12.8084 18.073C10.9298 16.1944 9.51614 14.4012 8.56737 12.6934L8.39659 12.4088C8.20684 12.0293 8.14991 11.6308 8.22581 11.2134C8.30171 10.7959 8.51044 10.4544 8.852 10.1887L11.0721 8.48092C11.4516 8.21527 11.5085 7.89268 11.2429 7.51318L9.42126 4.78073L7.315 1.59287C7.04934 1.21337 6.70779 1.13747 6.29033 1.36517L3.84251 2.84525C3.27325 3.1868 2.89375 3.68016 2.70399 4.32532C1.48957 8.68965 4.07022 14.0597 10.4459 20.4354C16.8216 26.8111 22.1917 29.3917 26.556 28.1773C27.2011 27.9876 27.6945 27.6081 28.0361 27.0388L29.5161 24.591ZM17.9602 5.12229C17.6566 5.12229 17.5048 4.961 17.5048 4.63842C17.5048 4.31584 17.6566 4.15454 17.9602 4.15454C20.5029 4.15454 22.6755 5.05587 24.4782 6.85853C26.2808 8.66119 27.1822 10.8339 27.1822 13.3766C27.1822 13.7181 27.0209 13.8889 26.6983 13.8889C26.3757 13.8889 26.2144 13.7181 26.2144 13.3766C26.2144 11.0995 25.408 9.15454 23.7951 7.54164C22.1822 5.92874 20.2372 5.12229 17.9602 5.12229ZM17.9602 8.08244C17.6566 8.08244 17.5048 7.92115 17.5048 7.59857C17.5048 7.27599 17.6566 7.1147 17.9602 7.1147C19.7059 7.1147 21.1955 7.7314 22.4289 8.96479C23.6622 10.1982 24.2789 11.6688 24.2789 13.3766C24.2789 13.7181 24.1177 13.8889 23.7951 13.8889C23.4725 13.8889 23.3112 13.7181 23.3112 13.3766C23.3112 11.9344 22.7894 10.6915 21.7457 9.6479C20.7021 8.60426 19.4402 8.08244 17.9602 8.08244ZM17.9602 10.9857C17.6566 10.9857 17.5048 10.8244 17.5048 10.5018C17.5048 10.1792 17.6566 10.0179 17.9602 10.0179C18.9089 10.0179 19.7154 10.35 20.3795 11.0141C21.0437 11.6783 21.3757 12.4657 21.3757 13.3766C21.3757 13.7181 21.2144 13.8889 20.8918 13.8889C20.5693 13.8889 20.408 13.7181 20.408 13.3766C20.408 12.7314 20.1708 12.1716 19.6964 11.6972C19.222 11.2229 18.6433 10.9857 17.9602 10.9857Z" fill="#13C5DD"/>
</svg>
