<svg width="57" height="56" viewBox="0 0 57 56" fill="none" xmlns="http://www.w3.org/2000/svg">
<rect x="1" y="0.5" width="55" height="55" rx="27.5" stroke="#0090BC" stroke-dasharray="4 4"/>
<g clip-path="url(#clip0_499_143)">
<path d="M28.3228 22.5161C30.5652 21.5618 35.5707 20.9252 35.5707 20.9252C35.5707 20.9252 34.934 25.9306 33.9797 28.173C32.4364 31.7994 26.3783 34.3602 26.3783 34.3602L22.1356 30.1175C22.1356 30.1175 24.6964 24.0594 28.3228 22.5161Z" stroke="#0090BC" stroke-width="2"/>
<path d="M26.3781 34.3634L29.9136 37.8989L31.6814 31.1814" stroke="#0090BC" stroke-width="2"/>
<path d="M22.1357 30.118L18.6001 26.5825L25.3176 24.8147" stroke="#0090BC" stroke-width="2"/>
<path d="M21.5951 32.1058C22.3789 31.6922 23.3232 31.3086 23.3232 31.3086L25.1848 33.1702C25.1848 33.1702 24.7484 34.0922 24.3875 34.8982C24.0265 35.7042 21.075 35.4243 21.075 35.4243C21.075 35.4243 20.8114 32.5195 21.5951 32.1058Z" stroke="#0090BC" stroke-width="2"/>
<path d="M28.4995 22.3398C28.4995 22.3398 28.8531 24.1076 30.6208 25.8754C32.3886 27.6431 34.1564 27.9967 34.1564 27.9967" stroke="#0090BC" stroke-width="2"/>
</g>
<defs>
<clipPath id="clip0_499_143">
<rect width="24" height="24" fill="white" transform="translate(28.4995 11.0273) rotate(45)"/>
</clipPath>
</defs>
</svg>
